<svg version="1" xmlns="http://www.w3.org/2000/svg" width="373.333" height="373.333" viewBox="0 0 280.000000 280.000000"><path d="M18.7 1.4C11.3 4.1 4.1 11.3 1.4 18.7.3 21.8.1 44.4 0 139.6c0 133.1-.7 122.9 8.5 132 9.1 9.1-1.2 8.5 133.1 8.2l117.9-.3 4.7-2.4c5.7-2.9 9.8-7.1 13-13.1l2.3-4.5.3-117.9c.3-134.3.9-124-8.2-133.1-9.1-9.2 1.1-8.5-132-8.5C44.4.1 21.8.3 18.7 1.4zM212 101.3v12.3l20.3 6.3c11.1 3.4 25.3 7.8 31.5 9.8l11.2 3.5v3.4c0 1.9-.3 3.4-.7 3.4-.3 0-30.5-9.3-67-20.6l-66.4-20.7-66.5 21-66.5 21 .3-3.6.3-3.6L74 113.3c36-11.2 66.4-20.3 67.4-20.3s11.9 3.1 24.2 7c12.2 3.8 22.5 7 22.8 7 .3 0 .6-4.1.6-9v-9h23v12.3zm-30.2 35.9c9.9 6 9.3 22-1 27.8-4.9 2.7-13 2.5-17.1-.6-3.9-2.9-6.7-8.6-6.7-13.6 0-13 13.4-20.4 24.8-13.6zm62.6-2.1c3.7 1 3.8 1.2 3.3 4.6-.8 4.4-1.1 4.7-3.5 3.4-2.6-1.4-6.9-1.4-7.7 0-1 1.5-.4 1.8 5 3.2 7.6 1.9 11 8.7 7.6 15.1-2.6 4.8-11.7 7-19.2 4.5-4.9-1.7-5.2-2.2-3.3-6.1l1.7-3.6 3.4 1.5c1.9.8 4.5 1.3 5.7 1.1 3.4-.5 2.5-3.1-1.4-4-5.3-1.3-7.7-2.8-8.9-5.5-4.5-9.8 5-17.6 17.3-14.2zM55.8 138c4.5 2.8 7.2 7.6 7.2 13s-2.7 10.2-7.2 13c-2.6 1.6-5.1 2-12 2H35v-30h8.8c6.9 0 9.4.4 12 2zm35.5 12.3c2.6 7.8 4.7 14.6 4.7 15 0 .4-2.4.7-5.4.7-4.5 0-5.4-.3-5.9-2-.4-1.5-1.4-2-4.2-2-2.8 0-3.8.5-4.2 2-.5 1.7-1.4 2-5.9 2-3 0-5.4-.3-5.4-.7 0-.4 2.1-7.2 4.7-15l4.7-14.3h12.2l4.7 14.3zm23.2-7.6l4 6.8.3-6.8.3-6.7h9.9v30h-10.9l-4-6.8-4.1-6.7V166H99v-30h11.6l3.9 6.7zm39.5-3.3c0 3.4-.1 3.5-4.7 3.8-4.1.3-4.8.6-5.1 2.5-.3 2.1.1 2.3 4.2 2.3h4.6v8h-9v10h-10v-30h20v3.4zm62.9-.8c3.1 3.9 2.8 9-.8 12.3l-2.9 2.7 3.4 5.5c1.8 3 3.4 5.7 3.4 6.1 0 .5-2.4.8-5.4.8h-5.5l-2.8-5.2-2.8-5.2-.3 5.2-.3 5.2H193v-30h10.9c10.6 0 11 .1 13 2.6zM250 183v12l-72.7-.2c-40.1-.2-88.4-.4-107.5-.6l-34.8-.3V171h215v12z"/><path d="M169.2 146.2c-.7.7-1.2 2.8-1.2 4.8 0 4.3 1.4 6 5 6s5-1.7 5-6-1.4-6-5-6c-1.4 0-3.1.5-3.8 1.2zM45.6 144.7c-.3.4-.6 3.3-.6 6.5 0 4.9.3 5.8 1.8 5.8 4.2-.1 6.9-4.8 5-8.7-1.3-2.6-5-4.7-6.2-3.6zM79.6 150.5c-1 2.8-.7 4.5.9 4.5s2-2.7.6-4.8c-.7-1.1-1-1-1.5.3zM203 146c0 2.5.4 3 2.4 3 2.8 0 4.2-2.6 2.5-4.6-.6-.8-2-1.4-3-1.4-1.4 0-1.9.7-1.9 3zM151 173.5c0 .6.8 1.1 1.8 1 .9 0 1.7-.5 1.7-1s-.8-1-1.7-1c-1-.1-1.8.4-1.8 1zM62.2 177.2c-1.9 1.9-1.4 5.5 1.1 7.4 1.8 1.3 1.8 1.5.3 1-2.3-.8-3.9 1.3-2.4 3.1 1.5 1.9 5.2 1.6 7.2-.6 2.3-2.5 1.7-5.2-1.4-6.8l-2.5-1.3h2.3c1.7 0 2.3-.5 2-1.8-.4-2.1-4.8-2.8-6.6-1zM87.5 178.5c-3.1 3-3.2 5.6-.1 9.2 2.1 2.4 2.7 2.6 5.2 1.8 2.3-.8 3-1.7 3.2-4.3.3-2.9.1-3.2-2.2-3.2-2.7 0-3.7 2.4-1.3 3.3.7.3.5.6-.5.6-1.4.1-1.8-.7-1.8-3 0-2.4.3-2.9 1.8-2.5.9.3 2.4.1 3.2-.4 1.3-.9 1.2-1.2-.4-2.5-2.8-2.1-4.3-1.9-7.1 1zM129.6 177.5c-2.6 2.6-1.9 5 1.9 7.4 1.9 1.2 1.9 1.2-.2.8-2.5-.5-4.1 2.2-2.1 3.5 1.9 1.2 5.2 1 6.6-.4 2.1-2.1 1.5-6.8-1-7.7l-2.2-.8 2.3-.6c1.3-.3 2.1-1.1 1.9-1.9-.7-1.9-5.3-2.1-7.2-.3zM149.2 178.3c-2.8 2.9-2.8 6.7-.2 9.5 2.6 2.7 5.4 2.8 8 .2 2.7-2.7 2.6-7.1-.3-9.8-3-2.8-4.8-2.8-7.5.1zm5.6 5c.2 1-.3 1.7-1.2 1.7-1.8 0-2.9-1.6-2.1-3.1.9-1.4 2.9-.6 3.3 1.4zM235 178c-1.2 1.2-2 3.3-2 5.5 0 7.3 10.1 8.9 10.8 1.7.3-3 .1-3.2-2.7-3.2-3.3 0-3.8.8-1.8 2.9 1 1.1.9 1.3-.3.9-.8-.3-1.5-1.6-1.5-2.9 0-1.8.6-2.4 2.3-2.5 3.3-.2 4-1.4 1.8-3-2.7-1.9-4.2-1.8-6.6.6zM40.2 183.2c.2 5 .6 6.3 2.1 6.6 1.2.3 1.7-.3 1.7-2.2 0-1.6.6-2.6 1.5-2.6.8 0 1.5-.7 1.5-1.5s-.7-1.5-1.5-1.5-1.5-.5-1.5-1c0-.6.9-1 2-1s2-.7 2-1.5c0-1.1-1.1-1.5-4-1.5h-4.1l.3 6.2zM49.6 182.4c-2.4 8-2 9.1 2.4 6.4 1.5-1 2.2-1 3.2 0 1.6 1.6 3.8 1.5 3.8-.1 0-.7-.7-3.7-1.5-6.5-1.3-4.4-2-5.2-4-5.2s-2.6.8-3.9 5.4zM70 178.5c0 .9.7 1.8 1.5 2.1 1 .4 1.5 2 1.5 5.1 0 3.7.3 4.4 1.8 4.1 1.2-.2 1.8-1.5 2-4.6.2-2.3.7-4.2 1.3-4.2.5 0 .9-.9.9-2 0-1.7-.7-2-4.5-2-3.4 0-4.5.4-4.5 1.5zM80.2 183.2c.2 5 .6 6.3 2.1 6.6 1.5.3 1.7-.5 1.7-6.2 0-6-.2-6.6-2-6.6-1.9 0-2.1.5-1.8 6.2zM98 183.6c0 5.7.2 6.5 1.8 6.2.9-.2 1.8-1.3 2-2.6.2-1.2.7-2.2 1.2-2.2s1 1 1.2 2.2c.2 1.3 1.1 2.4 2.1 2.6 1.5.3 1.7-.5 1.7-6.2 0-5.9-.2-6.6-2-6.6-1.3 0-2 .7-2 2 0 1.1-.4 2-1 2-.5 0-1-.9-1-2 0-1.3-.7-2-2-2-1.8 0-2 .7-2 6.6zM110 183.5v6.5h3.5c2.8 0 3.5-.4 3.5-1.9 0-1.1-.8-2.2-1.7-2.4-1.7-.4-1.7-.5 0-.6 1-.1 1.7-.9 1.7-2s-.8-2.2-1.7-2.4c-1.7-.4-1.7-.5 0-.6.9 0 1.7-.8 1.7-1.6 0-1-1.1-1.5-3.5-1.5H110v6.5zM118 179c0 1.1.7 2 1.5 2 1.1 0 1.5 1.2 1.5 4.6 0 3.8.3 4.5 1.8 4.2 1.2-.2 1.8-1.5 2-4.6.2-2.3.7-4.2 1.3-4.2.5 0 .9-.9.9-2 0-1.7-.7-2-4.5-2s-4.5.3-4.5 2zM139 183.6c0 5.7.2 6.5 1.8 6.2.9-.2 1.8-1.3 2-2.6.2-1.2 1-2.2 1.8-2.2s1.4-.7 1.4-1.5-.7-1.5-1.5-1.5-1.5-.5-1.5-1c0-.6.7-1 1.5-1s1.5-.7 1.5-1.5c0-1-1.1-1.5-3.5-1.5H139v6.6zM160 183c0 5.3.2 6 1.9 6 1.1 0 2.2-.8 2.4-1.8.4-1.6.5-1.6.6 0 .1 1.2.9 1.8 2.6 1.8 2.3 0 2.4-.2 1.3-2.5-.8-1.8-.8-2.8.1-3.9.7-.8 1-2.4.6-3.6-.5-1.6-1.5-2-5.1-2H160v6zm5.5-2c.3.5.1 1-.4 1-.6 0-1.1-.5-1.1-1 0-.6.2-1 .4-1 .3 0 .8.4 1.1 1zM171.8 183c-.2 5.1 0 6 1.4 6 .9 0 1.9-.6 2.2-1.3.5-1 .7-1 1.2 0 .9 2.1 3.2 1.5 3.7-1l.4-2.2.2 2.2c.1 1.6.7 2.3 2.1 2.3 2.2 0 2.5-1.6 1.3-8.3-.5-3.1-.9-3.7-2.6-3.5-1.3.2-2.4 1.3-2.7 2.8l-.6 2.5-.7-2.8c-.6-2-1.4-2.7-3.1-2.7-2.2 0-2.4.4-2.8 6zM186 183v6h4c2.9 0 4-.4 4-1.5 0-.8-.8-1.5-1.7-1.5-1.5 0-1.4-.2.3-1.5 1.9-1.5 1.9-1.5 0-3-1.7-1.3-1.8-1.5-.3-1.5.9 0 1.7-.7 1.7-1.5 0-1.1-1.1-1.5-4-1.5h-4v6zM196 183v6h3.3c4 0 6.7-2.5 6.7-6.2 0-3.3-2.9-5.8-6.8-5.8H196v6zm6 .6c0 .8-.4 1.4-1 1.4-.5 0-1-.9-1-2.1 0-1.1.5-1.7 1-1.4.6.3 1 1.3 1 2.1zM207 183v6h12v-6c0-5.3-.2-6-2-6-1.7 0-2 .7-2 4.4 0 3.9-.2 4.4-2 3.9-1.6-.4-2-1.4-2-4.4 0-3.2-.3-3.9-2-3.9-1.8 0-2 .7-2 6zM221 183c0 5.3.2 6 2 6 1.4 0 2-.7 2.1-2.3v-2.2l1.1 2.2c.7 1.4 2 2.3 3.5 2.3 2.2 0 2.3-.4 2.3-6 0-5.3-.2-6-2-6-1.4 0-2 .7-2.1 2.2v2.3l-1.1-2.3c-.7-1.3-2-2.2-3.5-2.2-2.2 0-2.3.4-2.3 6z"/></svg>