<?xml version="1.0" encoding="utf-8"?>
<!-- Generator: Adobe Illustrator 19.2.0, SVG Export Plug-In . SVG Version: 6.00 Build 0)  -->
<svg version="1.1" id="Lager_1" xmlns="http://www.w3.org/2000/svg" xmlns:xlink="http://www.w3.org/1999/xlink" x="0px" y="0px"
	 viewBox="0 0 32 32" style="enable-background:new 0 0 32 32;" xml:space="preserve">
<style type="text/css">
	.st0{fill:#1E5D9D;}
	.st1{fill:#FFFFFF;}
</style>
<rect class="st0" width="32" height="32"/>
<path class="st1" d="M26,21.2v-9c0,0-9.1,6.4-10,6.7c-0.9-0.3-10-6.7-10-6.7v9c0,1.2,0.3,1.5,1.5,1.5h17C25.8,22.8,26,22.5,26,21.2z
	 M26,10.5c0-0.9-0.3-1.2-1.5-1.2h-17C6.2,9.2,6,9.6,6,10.6l0,0.1c0,0,9,6.2,10,6.6C17,16.9,26,10.6,26,10.5C26,10.6,26,10.5,26,10.5
	z"/>
</svg>
